<?xml version="1.0" encoding="UTF-8"?><svg xmlns="http://www.w3.org/2000/svg" id="katman_2" data-name="katman 2" viewBox="0 0 425 159"><defs><style> .cls-1, .cls-2 { fill: #023f87; } .cls-3, .cls-4 { fill: #fff; } .cls-4, .cls-2, .cls-5 { fill-rule: evenodd; } .cls-6, .cls-5 { fill: #00aae5; } .cls-7 { font-size: 30.92px; } .cls-7, .cls-8 { font-family: ComicSansMS-Bold, 'Comic Sans MS'; } .cls-8 { font-size: 19.18px; letter-spacing: .1em; } .cls-9 { fill: #ccc; } </style></defs><g id="katman_1" data-name="katman 1"><rect class="cls-9" width="425" height="159" rx="62.46" ry="62.46"/><rect class="cls-1" x="34.32" y="23.64" width="111" height="111" rx="17.61" ry="17.61"/><circle class="cls-6" cx="89.82" cy="79.14" r="50.35"/><text class="cls-7" transform="translate(155.48 55.2)"><tspan x="0" y="0">Paylaştığın</tspan><tspan x="0" y="30">Senindir</tspan></text><text class="cls-8" transform="translate(155.78 108.4) scale(.96 1)"><tspan x="0" y="0">Hemşehrini </tspan><tspan x="0" y="19.78">Sevindir</tspan></text><g><path class="cls-3" d="M81.09,71.23h8.6c1.44,0,2.61-1.17,2.61-2.61v-1.58c0-1.44-1.17-2.61-2.61-2.61h-8.6c-1.44,0-2.61,1.17-2.61,2.61v1.58c0,1.44,1.17,2.61,2.61,2.61Zm-.49-4.19c0-.27,.22-.49,.49-.49h8.6c.27,0,.49,.22,.49,.49v1.58c0,.27-.22,.49-.49,.49h-8.6c-.27,0-.49-.22-.49-.49v-1.58Z"/><path class="cls-3" d="M117.14,60.86c.98-1.63,.46-3.75-1.17-4.73l-4.59-2.77c-1.63-.98-3.75-.46-4.73,1.17-.98,1.63-.46,3.75,1.17,4.73l4.59,2.77c1.63,.98,3.75,.45,4.73-1.17Zm-8.67-5.22c.38-.62,1.19-.83,1.81-.45l4.59,2.77c.62,.38,.83,1.19,.45,1.81-.38,.62-1.19,.83-1.81,.45l-4.59-2.77c-.62-.38-.83-1.19-.45-1.81h0Z"/><path class="cls-3" d="M105.56,63.03c-1.63-.98-3.75-.46-4.73,1.17-.98,1.63-.46,3.75,1.17,4.73l4.59,2.77c1.63,.98,3.75,.45,4.73-1.17,.98-1.63,.45-3.75-1.17-4.73l-4.59-2.77Zm3.94,6.4c-.38,.62-1.19,.83-1.81,.45l-4.59-2.77c-.62-.38-.83-1.19-.45-1.81,.38-.62,1.19-.83,1.81-.45l4.59,2.77c.62,.38,.83,1.19,.45,1.81Z"/><path class="cls-3" d="M123.27,47.59c.08,.81,.05,1.48-.25,1.61-.45,.19-1.18-.98-1.44-.83-.43,.23,1.61,3.26,1.06,6.51-.19,1.1-.63,1.97-1.01,2.56l-9.86,16.36h-14.2v-8.22l10.01-16.61c2.33-3.87,7.39-5.13,11.26-2.79,1.12,.67,2.03,1.58,2.72,2.68,.31,.5,.97,.65,1.46,.34,.5-.31,.65-.97,.34-1.46-.87-1.39-2.02-2.53-3.43-3.38-4.88-2.94-11.24-1.36-14.18,3.52l-8.37,13.9c-.48-1.45-1.85-2.49-3.46-2.49h-25.3c-2.01,0-3.65,1.64-3.65,3.65v10.88h-3.2c-.41,0-.79,.24-.96,.61l-5.8,12.45c-.97,2.09,.56,4.49,2.86,4.49h2.84v11.5c0-.58,.48-1.06,1.06-1.06s1.06,.48,1.06,1.06v-11.5h7.98c2.08,0,4-1.22,4.87-3.11l4-8.59v33.61h-12.83c-2.22,0-4.02-1.8-4.02-4.02v-6.4c0-.59-.48-1.06-1.06-1.06s-1.06,.48-1.06,1.06v6.4c0,3.39,2.76,6.15,6.15,6.15h45.7c3.39,0,6.15-2.76,6.15-6.15v-17.9h2.84c2.31,0,3.83-2.4,2.86-4.49l-5.8-12.45c-.17-.37-.55-.61-.96-.61h-3.39l9.2-15.27c.47-.78,.99-1.85,1.26-3.2,.77-3.73-.87-6.79-1.44-7.75Zm-27.83,15.33v10.88h-20.11v-12.4h18.59c.84,0,1.52,.68,1.52,1.52Zm-28.34,0c0-.84,.68-1.52,1.52-1.52h4.58v12.4h-6.1v-10.88Zm3.72,26.31h-12.94c-.75,0-1.26-.78-.94-1.47l5.51-11.84h16.63l-5.32,11.43c-.53,1.14-1.69,1.88-2.95,1.88Zm45.76,20.02c0,2.22-1.8,4.02-4.02,4.02h-30.74v-33.61l4,8.59c.88,1.89,2.79,3.11,4.87,3.11h25.89v17.9h0Zm5.9-21.49c.32,.68-.18,1.47-.94,1.47h-30.85c-1.26,0-2.42-.74-2.95-1.88l-5.32-11.43h34.54l5.51,11.84Z"/></g><rect class="cls-1" x="34.32" y="134" width="111" height="2" rx="1" ry="1"/><polygon class="cls-4" points="334.15 119.82 337.13 129.02 346.76 129.02 338.97 134.7 341.91 143.89 334.15 138.22 326.33 143.89 329.31 134.7 321.51 129.02 331.17 129.02 334.15 119.82 334.15 119.82"/><path class="cls-2" d="M400,33.31h-67.27V102.77c0,18.55,15.11,33.66,33.66,33.66s33.61-15.11,33.61-33.66V33.31h0Z"/><polygon class="cls-3" points="382.73 73.82 385.78 76.56 391.51 76.56 394.56 73.82 394.56 73.81 382.73 73.81 382.73 73.82"/><polygon class="cls-3" points="344.1 40.59 341.29 55.85 346.91 55.85 344.1 40.59"/><polygon class="cls-3" points="385.78 69.9 385.78 69.9 382.73 69.9 382.73 72.24 394.56 72.24 394.56 69.9 391.5 69.9 391.5 69.9 385.78 69.9"/><polygon class="cls-3" points="350.03 73.82 350.03 73.81 338.18 73.81 338.18 73.82 341.21 76.55 346.97 76.55 350.03 73.82"/><rect class="cls-3" x="385.78" y="78.04" width="5.72" height="5.39"/><polygon class="cls-3" points="346.95 77.93 341.23 77.93 341.25 83.43 346.95 83.43 346.95 77.93"/><path class="cls-3" d="M385.78,88.9h-1.81v-3.89h-1.78v1.04h-1.81v-1.04h-28.04v1.04h-1.78v-1.04h-1.81v3.89h-1.81v-3.91h-5.72l.02,18.97c0,8.96,4.81,17.25,12.59,21.75-5.11-3.92-8.12-9.97-8.12-16.38,0-10.36,7.79-19.11,17.99-20.43h5.32c10.18,1.32,17.96,10.07,17.96,20.43,0,6.41-3,12.47-8.09,16.38,7.76-4.5,12.57-12.8,12.59-21.75v-18.97h-5.72v3.91Z"/><rect class="cls-3" x="338.18" y="69.9" width="11.86" height="2.34"/><polygon class="cls-3" points="346.95 57.41 341.25 57.41 341.23 68.36 346.95 68.36 346.95 57.41"/><rect class="cls-3" x="385.78" y="57.41" width="5.72" height="10.92"/><polygon class="cls-3" points="388.63 40.59 385.82 55.85 391.46 55.85 388.63 40.59"/><polygon class="cls-5" points="360.92 96.23 371.81 96.23 372.75 115.43 360.01 115.43 360.92 96.23"/><polygon class="cls-4" points="366.39 107.18 369.04 115.35 377.59 115.35 370.67 120.39 373.29 128.56 366.39 123.52 359.45 128.56 362.09 120.39 355.17 115.35 363.75 115.35 366.39 107.18 366.39 107.18"/><polygon class="cls-5" points="375.55 92.57 375.55 93.63 373.24 93.63 373.24 95.19 359.52 95.19 359.52 93.63 357.18 93.63 357.18 92.57 375.55 92.57 375.55 92.57"/><polygon class="cls-5" points="360.92 90.12 354.13 86.05 378.63 86.05 371.73 90.12 371.73 91.52 360.92 91.52 360.92 90.12 360.92 90.12"/><path class="cls-5" d="M366.98,69.06c7.43,.33,13.41,6.49,13.41,14.02h-28.04c0-7.53,5.98-13.69,13.43-14.02l.61-4.38,.58,4.38h0Z"/><path class="cls-2" d="M374.64,29.36h-4.05l-.48,.89h-2.75l3.66-6.51h3.26l3.66,6.51h-2.82l-.48-.89h0Zm-3.43-1.12h2.85l-1.45-2.62-1.4,2.62h0Z"/><path class="cls-2" d="M340.03,29.36h-4.07l-.48,.89h-2.75l3.66-6.51h3.26l3.69,6.51h-2.83l-.48-.89h0Zm-3.46-1.09h2.85l-1.43-2.65-1.42,2.65h0Z"/><path class="cls-2" d="M396.72,29.36h-4.1l-.46,.89h-2.75l3.66-6.51h3.26l3.66,6.51h-2.82l-.46-.89h0Zm-3.49-1.09h2.88l-1.43-2.65-1.45,2.65h0Z"/><polygon class="cls-2" points="344.77 23.74 347.56 23.74 351.25 27.35 351.25 23.74 354.1 23.74 354.1 30.25 351.25 30.25 347.61 26.69 347.61 30.25 344.77 30.25 344.77 23.74 344.77 23.74"/><polygon class="cls-2" points="356.49 23.77 359.5 23.77 359.5 26.21 363.01 23.74 366.67 23.77 363.11 26.21 366.82 30.25 363.26 30.25 360.92 27.66 359.5 28.65 359.5 30.25 356.49 30.25 356.49 23.77 356.49 23.77"/><path class="cls-2" d="M386.9,27.15c.94,.28,1.6,1.04,1.73,2.03l.1,1.07h-3.15l-.1-1.09c-.1-.99-.38-1.55-1.55-1.55h-1.5v2.65h-3.03v-6.51h5.93c.69,0,1.55,.05,2.16,.41,.46,.25,.79,.66,.82,1.35,0,.84-.69,1.43-1.4,1.65h0Zm-4.48-.76h1.27c.36,0,.99,0,1.27-.25,.13-.1,.2-.28,.2-.41,0-.2-.1-.38-.3-.48-.2-.13-.59-.18-1.12-.18h-1.32v1.32h0Z"/><polygon class="cls-2" points="350.57 88.9 352.35 88.9 352.35 87.1 350.57 87.1 350.57 88.9 350.57 88.9"/><polygon class="cls-2" points="382.19 88.9 380.39 88.9 380.39 87.1 382.19 87.1 382.19 88.9 382.19 88.9"/><polygon class="cls-4" points="352.99 58.39 348.81 55.1 354.17 56.62 355.7 54.73 357.3 57.74 362.71 59.5 358.44 60.03 360 63.46 355.41 60.32 351.45 60.57 352.99 58.39"/><polygon class="cls-4" points="363.77 53.59 368.46 54.8 369.65 53.31 370.82 55.73 375.22 57.18 371.76 57.55 373.13 60.43 369.32 57.7 366.1 58.06 367.26 56.28 363.77 53.59"/><polygon class="cls-4" points="373.95 50.17 377.54 51.14 378.45 49.62 379.53 51.74 383.01 52.87 380.33 53.18 381.28 55.4 378.4 53.43 375.77 53.76 376.65 52.27 373.95 50.17"/><polygon class="cls-4" points="378.29 44.99 381.24 45.67 381.93 44.5 382.97 46.14 385.78 46.82 383.57 47.25 384.52 48.95 382.06 47.44 379.91 47.8 380.53 46.6 378.29 44.99"/><polygon class="cls-4" points="376.28 40.29 378.43 40.6 378.91 39.85 379.62 40.91 381.75 41.31 380.15 41.64 380.91 42.9 379.07 41.88 377.43 42.35 377.94 41.37 376.28 40.29"/></g></svg>